<svg width="18" height="20" viewBox="0 0 18 20" fill="none" xmlns="http://www.w3.org/2000/svg">
<path d="M5.25 0C5.94141 0 6.5 0.558594 6.5 1.25V2.5H11.5V1.25C11.5 0.558594 12.0586 0 12.75 0C13.4414 0 14 0.558594 14 1.25V2.5H15.875C16.9102 2.5 17.75 3.33984 17.75 4.375V6.25H0.25V4.375C0.25 3.33984 1.08984 2.5 2.125 2.5H4V1.25C4 0.558594 4.55859 0 5.25 0ZM0.25 7.5H17.75V18.125C17.75 19.1602 16.9102 20 15.875 20H2.125C1.08984 20 0.25 19.1602 0.25 18.125V7.5ZM13.1016 11.9141C13.4688 11.5469 13.4688 10.9531 13.1016 10.5898C12.7344 10.2266 12.1406 10.2227 11.7773 10.5898L8.06641 14.3008L6.23047 12.4648C5.86328 12.0977 5.26953 12.0977 4.90625 12.4648C4.54297 12.832 4.53906 13.4258 4.90625 13.7891L7.40625 16.2891C7.77344 16.6562 8.36719 16.6562 8.73047 16.2891L13.1016 11.9141Z" fill="#0080df"/>
</svg>
