<svg width="58" height="60" viewBox="0 0 58 60" fill="none" xmlns="http://www.w3.org/2000/svg">
<path d="M29.0001 0.25C29.5391 0.25 30.0782 0.367188 30.5704 0.589844L52.6368 9.95312C55.2149 11.043 57.1368 13.5859 57.1251 16.6562C57.0665 28.2812 52.2852 49.5508 32.0938 59.2188C30.1368 60.1562 27.8633 60.1562 25.9063 59.2188C5.7149 49.5508 0.933647 28.2812 0.875053 16.6562C0.863335 13.5859 2.78521 11.043 5.36333 9.95312L27.4415 0.589844C27.9219 0.367188 28.461 0.25 29.0001 0.25ZM29.0001 8.07813V52.375C45.1719 44.5469 49.5196 27.2148 49.6251 16.8203L29.0001 8.07813Z" fill="#0077FF"/>
</svg>