<!-- Return Management Icon -->
<svg width="24" height="22" viewBox="0 0 24 22" fill="none" xmlns="http://www.w3.org/2000/svg">
<path d="M6.69844 5.69828C9.61406 2.78266 14.325 2.7686 17.2594 5.65141L15.3281 7.57797C15.0047 7.90141 14.9109 8.38422 15.0844 8.8061C15.2578 9.22797 15.6703 9.49985 16.125 9.49985H21.7266H22.125C22.7484 9.49985 23.25 8.99828 23.25 8.37485V2.37485C23.25 1.92016 22.9781 1.50766 22.5563 1.33422C22.1344 1.16078 21.6516 1.25453 21.3281 1.57797L19.3781 3.52797C15.2719 -0.526715 8.65781 -0.512652 4.575 3.57485C3.43125 4.7186 2.60625 6.06391 2.1 7.50297C1.82344 8.28578 2.23594 9.13891 3.01406 9.41547C3.79219 9.69203 4.65 9.27953 4.92656 8.50141C5.2875 7.47953 5.87344 6.5186 6.69844 5.69828ZM0.75 13.6248V13.9811V14.0139V19.6248C0.75 20.0795 1.02187 20.492 1.44375 20.6655C1.86562 20.8389 2.34844 20.7452 2.67188 20.4217L4.62187 18.4717C8.72812 22.5264 15.3422 22.5123 19.425 18.4248C20.5687 17.2811 21.3984 15.9358 21.9047 14.5014C22.1812 13.7186 21.7687 12.8655 20.9906 12.5889C20.2125 12.3123 19.3547 12.7248 19.0781 13.503C18.7172 14.5248 18.1313 15.4858 17.3063 16.3061C14.3906 19.2217 9.67969 19.2358 6.74531 16.353L8.67188 14.4217C8.99531 14.0983 9.08906 13.6155 8.91562 13.1936C8.74219 12.7717 8.32969 12.4998 7.875 12.4998H2.26875H2.23594H1.875C1.25156 12.4998 0.75 13.0014 0.75 13.6248Z" fill="#0080DF"/>
</svg>
