<svg width="23" height="21" viewBox="0 0 23 21" fill="none" xmlns="http://www.w3.org/2000/svg">
<path d="M1.875 0.5C0.839844 0.5 0 1.33984 0 2.375V10.5H5.625C5.96875 10.5 6.25 10.7812 6.25 11.125C6.25 11.4688 5.96875 11.75 5.625 11.75H0V14.25H5.625C5.96875 14.25 6.25 14.5312 6.25 14.875C6.25 15.2188 5.96875 15.5 5.625 15.5H0V18.625C0 19.6602 0.839844 20.5 1.875 20.5H10.3867C10.1406 20.1016 10 19.6328 10 19.1289C10 17.2969 11.0078 15.6992 12.5 14.8633V11.1172V2.375C12.5 1.33984 11.6602 0.5 10.625 0.5H1.875ZM5.9375 3H6.5625C6.90625 3 7.1875 3.28125 7.1875 3.625V4.5625H8.125C8.46875 4.5625 8.75 4.84375 8.75 5.1875V5.8125C8.75 6.15625 8.46875 6.4375 8.125 6.4375H7.1875V7.375C7.1875 7.71875 6.90625 8 6.5625 8H5.9375C5.59375 8 5.3125 7.71875 5.3125 7.375V6.4375H4.375C4.03125 6.4375 3.75 6.15625 3.75 5.8125V5.1875C3.75 4.84375 4.03125 4.5625 4.375 4.5625H5.3125V3.625C5.3125 3.28125 5.59375 3 5.9375 3ZM20 11.125C20 10.2962 19.6708 9.50134 19.0847 8.91529C18.4987 8.32924 17.7038 8 16.875 8C16.0462 8 15.2513 8.32924 14.6653 8.91529C14.0792 9.50134 13.75 10.2962 13.75 11.125C13.75 11.9538 14.0792 12.7487 14.6653 13.3347C15.2513 13.9208 16.0462 14.25 16.875 14.25C17.7038 14.25 18.4987 13.9208 19.0847 13.3347C19.6708 12.7487 20 11.9538 20 11.125ZM11.25 19.1367C11.25 19.8906 11.8594 20.5 12.6133 20.5H21.1367C21.8906 20.5 22.5 19.8906 22.5 19.1367C22.5 17.1289 20.8711 15.5 18.8633 15.5H14.8867C12.8789 15.5 11.25 17.1289 11.25 19.1367Z" fill="#0077FF"/>
</svg>