<svg width="20" height="19" viewBox="0 0 20 19" fill="none" xmlns="http://www.w3.org/2000/svg">
<path d="M2.5 0.75C1.12109 0.75 0 1.87109 0 3.25V5.75C0 7.12891 1.12109 8.25 2.5 8.25H17.5C18.8789 8.25 20 7.12891 20 5.75V3.25C20 1.87109 18.8789 0.75 17.5 0.75H2.5ZM13.4375 3.5625C13.6861 3.5625 13.9246 3.66127 14.1004 3.83709C14.2762 4.0129 14.375 4.25136 14.375 4.5C14.375 4.74864 14.2762 4.9871 14.1004 5.16291C13.9246 5.33873 13.6861 5.4375 13.4375 5.4375C13.1889 5.4375 12.9504 5.33873 12.7746 5.16291C12.5988 4.9871 12.5 4.74864 12.5 4.5C12.5 4.25136 12.5988 4.0129 12.7746 3.83709C12.9504 3.66127 13.1889 3.5625 13.4375 3.5625ZM15.3125 4.5C15.3125 4.25136 15.4113 4.0129 15.5871 3.83709C15.7629 3.66127 16.0014 3.5625 16.25 3.5625C16.4986 3.5625 16.7371 3.66127 16.9129 3.83709C17.0887 4.0129 17.1875 4.25136 17.1875 4.5C17.1875 4.74864 17.0887 4.9871 16.9129 5.16291C16.7371 5.33873 16.4986 5.4375 16.25 5.4375C16.0014 5.4375 15.7629 5.33873 15.5871 5.16291C15.4113 4.9871 15.3125 4.74864 15.3125 4.5ZM2.5 10.75C1.12109 10.75 0 11.8711 0 13.25V15.75C0 17.1289 1.12109 18.25 2.5 18.25H17.5C18.8789 18.25 20 17.1289 20 15.75V13.25C20 11.8711 18.8789 10.75 17.5 10.75H2.5ZM13.4375 13.5625C13.6861 13.5625 13.9246 13.6613 14.1004 13.8371C14.2762 14.0129 14.375 14.2514 14.375 14.5C14.375 14.7486 14.2762 14.9871 14.1004 15.1629C13.9246 15.3387 13.6861 15.4375 13.4375 15.4375C13.1889 15.4375 12.9504 15.3387 12.7746 15.1629C12.5988 14.9871 12.5 14.7486 12.5 14.5C12.5 14.2514 12.5988 14.0129 12.7746 13.8371C12.9504 13.6613 13.1889 13.5625 13.4375 13.5625ZM15.625 14.5C15.625 14.2514 15.7238 14.0129 15.8996 13.8371C16.0754 13.6613 16.3139 13.5625 16.5625 13.5625C16.8111 13.5625 17.0496 13.6613 17.2254 13.8371C17.4012 14.0129 17.5 14.2514 17.5 14.5C17.5 14.7486 17.4012 14.9871 17.2254 15.1629C17.0496 15.3387 16.8111 15.4375 16.5625 15.4375C16.3139 15.4375 16.0754 15.3387 15.8996 15.1629C15.7238 14.9871 15.625 14.7486 15.625 14.5Z" fill="#0077FF"/>
</svg>